<svg width="29" height="47" viewBox="0 0 29 47" fill="none" xmlns="http://www.w3.org/2000/svg">
<path d="M26.5087 18.3335C26.13 13.1504 22.4926 8.78029 17.4549 7.45646L17.7306 4.90366L19.9266 3.78698L20.0139 3.74259L21.573 2.96012C21.8967 2.79736 22.1428 2.51362 22.257 2.16983C22.3705 1.8269 22.3434 1.45264 22.1803 1.12886L21.9883 0.751124C21.9665 0.709346 21.943 0.668438 21.9177 0.629272C21.5407 0.0400311 20.7782 -0.168858 20.1526 0.146216L19.6815 0.383827L19.6474 0.400364L15.2013 2.6024C14.943 2.7199 14.765 2.96535 14.7345 3.24735L14.3227 7.04825C7.90121 7.06827 2.6698 12.0416 2.21262 18.3335C0.92745 18.5815 0 19.7026 0 21.0064V22.2867C0.00174497 23.742 1.15168 24.937 2.60872 25.0005L4.40866 38.9047C4.77074 43.2565 8.21443 46.5404 12.4146 46.5404H16.5414C20.7424 46.5404 24.1844 43.2591 24.5421 38.9543L26.349 24.9805C27.7031 24.8029 28.7169 23.654 28.7195 22.291V21.0116C28.7213 19.7052 27.793 18.5815 26.5078 18.3335H26.5087ZM14.3602 9.09014C19.637 9.09014 23.9706 13.1374 24.4496 18.2813H22.449C21.9796 14.2323 18.5446 11.0842 14.3628 11.0842C10.1819 11.0842 6.73819 14.2323 6.27141 18.2821H4.27081C4.74893 13.1382 9.0808 9.09101 14.3602 9.09101V9.09014ZM20.4972 18.2813H18.282C17.8562 16.463 16.2317 15.1775 14.3602 15.1775C12.4887 15.1775 10.8642 16.463 10.4384 18.2813H8.22403C8.68383 15.255 11.2917 13.019 14.3602 13.019C17.4287 13.019 20.0366 15.2558 20.4972 18.2813ZM5.68685 32.4361L4.7245 25.0136H12.3395L11.8466 29.6875C8.95255 29.5935 6.8996 31.1279 5.68685 32.4361ZM22.4542 38.7306C22.1838 41.9875 19.6405 44.4428 16.5405 44.4428H12.4154C9.31463 44.4428 6.77221 41.9875 6.49651 38.681L5.99483 34.8018C6.45376 34.0428 8.31564 31.3681 11.6668 31.4003L11.0474 37.2797C10.9662 38.0482 11.5081 38.7419 12.2593 38.8246L12.6807 38.8716C12.7278 38.8768 12.774 38.8803 12.8211 38.8803C13.5313 38.8742 14.1211 38.332 14.1866 37.627L14.7642 32.1375C14.8732 32.1863 14.9805 32.2307 15.0913 32.2855C18.9538 34.1716 21.6367 33.6041 23.2246 32.7773L22.4551 38.7306H22.4542ZM23.5221 30.4795C23.0021 31.0191 20.5941 33.0749 15.8417 30.7554C15.5381 30.6074 15.2432 30.4821 14.9517 30.3663L15.5154 25.0118H24.2289L23.5221 30.4795ZM26.6448 22.285C26.6448 22.459 26.5767 22.6261 26.4537 22.7489C26.3315 22.8725 26.164 22.9421 25.9904 22.943H2.73262C2.37054 22.943 2.07651 22.6496 2.07564 22.2884V21.0081C2.07651 20.6469 2.37054 20.3536 2.73262 20.3536H25.9904C26.3525 20.3536 26.6456 20.6469 26.6465 21.0081L26.6448 22.285Z" fill="#122F53"/>
</svg>
