<svg width="89" height="22" viewBox="0 0 89 22" fill="none" xmlns="http://www.w3.org/2000/svg">
<path d="M0.879196 0.137757V4.41476H7.21866V21.4923H11.6535V4.41476H17.993V0.137757H0.879196ZM37.2556 1.37804C35.9678 0.490257 34.0405 0.0185165 31.663 0.0185165C30.5916 0.0185165 25.3131 0.131665 25.0906 0.137757L24.253 0.155165V21.4923H28.7166V13.753H31.567C33.2614 13.7904 34.9392 13.4179 36.4582 12.6667C38.5399 11.3716 39.7858 9.07994 39.7361 6.63246C39.7361 4.24416 38.9038 2.47557 37.2556 1.37804ZM28.7053 4.41476C29.5778 4.41476 30.8944 4.35209 31.4362 4.35209C34.537 4.35209 35.1695 5.30166 35.1695 6.72385C35.1791 7.55505 34.7996 8.34361 34.1435 8.85626C33.2291 9.29667 32.2153 9.49337 31.2015 9.42461H28.7166L28.7044 4.41476H28.7053ZM49.2104 4.86387C47.0161 4.84733 44.9143 5.74642 43.4128 7.34355C41.8554 8.93633 41.0012 11.0844 41.0413 13.3091C41.0108 15.5451 41.865 17.7027 43.4189 19.3146C44.9204 20.9065 47.0196 21.803 49.2104 21.7882C50.7364 21.8074 52.2327 21.3722 53.5091 20.5375V21.2251H57.9152V5.22768L53.5772 6.132C52.2815 5.28339 50.7608 4.84124 49.2104 4.86387ZM52.1864 10.1923C52.9804 11.0348 53.4123 12.1532 53.3896 13.3091C53.4158 14.4736 52.983 15.6025 52.1864 16.4537C51.4658 17.2388 50.4485 17.6862 49.3814 17.6862C48.3152 17.6862 47.297 17.2388 46.5772 16.4537C45.7798 15.6008 45.3497 14.4693 45.3793 13.303C45.354 12.148 45.7842 11.0296 46.5772 10.1871C47.2874 9.38718 48.3074 8.93024 49.3788 8.93024C50.4502 8.93024 51.4701 9.38718 52.1803 10.1871L52.1864 10.1923ZM69.0036 11.5971L67.2935 10.9434C65.7544 10.3742 65.7544 10.2036 65.7544 9.9712C65.7544 9.60652 65.7544 8.93546 67.7158 8.93546C69.124 8.93894 70.5112 9.27578 71.7632 9.91898L72.9829 10.4882V5.89874L72.4132 5.68811C70.8838 5.11192 69.2636 4.81339 67.6303 4.80729C63.6849 4.80729 61.3248 6.6725 61.3248 9.79452C61.3248 12.9165 63.6055 14.0367 65.3609 14.6738L67.1966 15.3283C68.9756 15.9594 69.1466 16.1352 69.1466 16.465C69.1466 16.9316 69.1466 17.7105 66.9174 17.7105C65.2466 17.7062 63.6107 17.2336 62.1973 16.3458L60.9087 15.606V20.3208L61.3711 20.5601C63.0855 21.4035 64.9762 21.8317 66.8886 21.8109C71.0792 21.8109 73.5815 19.8551 73.5815 16.5851C73.6103 13.5876 71.5233 12.5292 69.0036 11.5979V11.5971ZM83.8436 11.5971L82.1335 10.9434C80.5936 10.3742 80.5936 10.2036 80.5936 9.9712C80.5936 9.60652 80.5936 8.93546 82.555 8.93546C83.9632 8.93894 85.3504 9.27578 86.6024 9.91898L87.8221 10.4882V5.89874L87.2524 5.68811C85.7229 5.11192 84.1027 4.81339 82.4695 4.80729C78.5241 4.80729 76.164 6.6725 76.164 9.79452C76.164 12.9165 78.4447 14.0367 80.2001 14.6738L82.0358 15.3283C83.8148 15.9594 83.9858 16.1352 83.9858 16.465C83.9858 16.9316 83.9858 17.7105 81.7566 17.7105C80.0858 17.7062 78.4499 17.2336 77.0365 16.3458L75.7478 15.606V20.3208L76.2103 20.5601C77.9247 21.4035 79.8154 21.8317 81.7278 21.8109C85.9184 21.8109 88.4207 19.8551 88.4207 16.5851C88.4495 13.5876 86.3913 12.5292 83.8427 11.5979L83.8436 11.5971Z" fill="#122F53"/>
<path d="M17.7024 21.5376C18.9837 21.5376 20.0223 20.5014 20.0223 19.2232C20.0223 17.9451 18.9837 16.9089 17.7024 16.9089C16.4211 16.9089 15.3825 17.9451 15.3825 19.2232C15.3825 20.5014 16.4211 21.5376 17.7024 21.5376Z" fill="url(#paint0_linear)"/>
<defs>
<linearGradient id="paint0_linear" x1="15.3882" y1="19.2232" x2="20.0223" y2="19.2232" gradientUnits="userSpaceOnUse">
<stop stop-color="#59C4C9"/>
<stop offset="0.37" stop-color="#41B1BE"/>
<stop offset="1" stop-color="#0F8BA8"/>
</linearGradient>
</defs>
</svg>
