<svg width="50" height="50" viewBox="0 0 50 50" fill="none" xmlns="http://www.w3.org/2000/svg">
<path d="M0 8C0 3.58172 3.58172 0 8 0H42C46.4183 0 50 3.58172 50 8V42C50 46.4183 46.4183 50 42 50H8C3.58172 50 0 46.4183 0 42V8Z" fill="#F6F7F8"/>
<path d="M18.6 22.9C18.5 22.9 18.2 22.8 17.9 22.8H16.4V24.9H17.9C18.4 24.9 18.8 24.8 19 24.6C19.2 24.4 19.3 24.2 19.3 23.8C19.3 23.6 19.2 23.3 19.1 23.2C19 23.1 18.8 23 18.6 22.9Z" fill="#F8A644"/>
<path d="M22.5 22.8C22.4 23.2 22.3 23.5 22.2 23.9L21.6 25.6H23.6L22.9 24C22.7 23.5 22.6 23.1 22.5 22.8Z" fill="#F8A644"/>
<path d="M39.5 24.2C39.5 22.9 40.4 21.7 41.6 21.3V16C41.6 14.9 40.7 14 39.6 14H11C9.9 14 9 14.9 9 16V21.3C10.2 21.7 11.1 22.9 11.1 24.2C11.1 25.5 10.2 26.7 9 27.1V33.4C9 34.5 9.9 35.4 11 35.4H39.5C40.6 35.4 41.5 34.5 41.5 33.4V27.1C40.4 26.7 39.5 25.5 39.5 24.2ZM17.9 25.6H16.4V28H15.6V22.2H17.8C18.2 22.2 18.5 22.2 18.7 22.3C19 22.3 19.2 22.4 19.4 22.6C19.6 22.7 19.8 22.9 19.9 23.2C20 23.4 20.1 23.7 20.1 24C20.1 24.5 19.9 24.9 19.6 25.3C19.3 25.5 18.7 25.6 17.9 25.6ZM24.4 28L23.7 26.2H21.3L20.6 28H19.8L22 22.2H22.8L25.2 28H24.4ZM30 27.2C29.8 27.5 29.6 27.7 29.2 27.8C28.9 28 28.5 28 28.1 28C27.6 28 27.1 27.9 26.8 27.8C26.4 27.6 26.2 27.4 26 27.1C25.8 26.8 25.7 26.4 25.7 26.1L26.4 26C26.4 26.3 26.5 26.5 26.6 26.7C26.7 26.9 26.9 27 27.2 27.2C27.5 27.3 27.8 27.4 28.1 27.4C28.4 27.4 28.7 27.4 28.9 27.3C29.1 27.2 29.3 27.1 29.4 26.9C29.5 26.7 29.6 26.6 29.6 26.4C29.6 26.2 29.5 26.1 29.4 25.9C29.3 25.8 29.1 25.6 28.9 25.6C28.7 25.5 28.4 25.4 27.9 25.3C27.4 25.2 27 25.1 26.8 24.9C26.5 24.8 26.3 24.6 26.2 24.4C26.1 24.2 26 23.9 26 23.7C26 23.4 26.1 23.1 26.3 22.9C26.5 22.6 26.7 22.4 27 22.3C27.3 22.2 27.7 22.1 28.1 22.1C28.5 22.1 28.9 22.2 29.2 22.3C29.5 22.4 29.8 22.6 30 22.9C30.2 23.2 30.3 23.5 30.3 23.8L29.6 23.9C29.6 23.5 29.4 23.3 29.2 23.1C29 22.9 28.6 22.8 28.2 22.8C27.7 22.8 27.4 22.9 27.2 23.1C27 23.3 26.9 23.5 26.9 23.7C26.9 23.9 27 24.1 27.1 24.2C27.2 24.3 27.6 24.5 28.3 24.6C28.9 24.7 29.4 24.9 29.6 25C29.9 25.2 30.2 25.4 30.4 25.6C30.6 25.8 30.6 26.1 30.6 26.4C30.3 26.7 30.2 27 30 27.2ZM35.5 27.2C35.3 27.5 35.1 27.7 34.7 27.8C34.4 28 34 28 33.6 28C33.1 28 32.6 27.9 32.3 27.8C31.9 27.6 31.7 27.4 31.5 27.1C31.3 26.8 31.2 26.4 31.2 26.1L31.9 26C31.9 26.3 32 26.5 32.1 26.7C32.2 26.9 32.4 27 32.7 27.2C33 27.3 33.3 27.4 33.6 27.4C33.9 27.4 34.2 27.4 34.4 27.3C34.6 27.2 34.8 27.1 34.9 26.9C35 26.7 35.1 26.6 35.1 26.4C35.1 26.2 35 26.1 34.9 25.9C34.8 25.8 34.6 25.6 34.4 25.6C34.2 25.5 33.9 25.4 33.4 25.3C32.9 25.2 32.5 25.1 32.3 24.9C32 24.8 31.8 24.6 31.7 24.4C31.6 24.2 31.5 23.9 31.5 23.7C31.5 23.4 31.6 23.1 31.7 22.9C31.9 22.6 32.1 22.4 32.4 22.3C32.7 22.2 33.1 22.1 33.5 22.1C33.9 22.1 34.3 22.2 34.6 22.3C34.9 22.4 35.2 22.6 35.4 22.9C35.6 23.2 35.7 23.5 35.7 23.8L35 23.9C35 23.5 34.8 23.3 34.6 23.1C34.4 22.9 34 22.8 33.6 22.8C33.1 22.8 32.8 22.9 32.6 23.1C32.4 23.3 32.3 23.5 32.3 23.7C32.3 23.9 32.4 24.1 32.5 24.2C32.6 24.3 33 24.5 33.7 24.6C34.3 24.7 34.8 24.9 35 25C35.3 25.2 35.6 25.4 35.8 25.6C36 25.8 36 26.1 36 26.4C35.7 26.7 35.6 27 35.5 27.2Z" fill="#F8A644"/>
</svg>
